<!--?xml version="1.0" standalone="no"?-->
              <svg id="sw-js-blob-svg" viewBox="0 0 100 100" xmlns="http://www.w3.org/2000/svg" version="1.1">
                    <defs> 
                        <linearGradient id="sw-gradient" x1="0" x2="1" y1="1" y2="0">
                            <stop id="stop1" stop-color="rgba(248, 117, 55, 1)" offset="0%"></stop>
                            <stop id="stop2" stop-color="rgba(251, 168, 31, 1)" offset="100%"></stop>
                        </linearGradient>
                    </defs>
                <path fill="url(#sw-gradient)" d="M18.3,-22.3C25.8,-15.6,35.4,-11.8,38,-5.4C40.6,0.9,36.3,9.7,30.2,14.8C24.1,20,16.2,21.5,8.5,25C0.8,28.6,-6.8,34.1,-13.8,33.4C-20.7,32.8,-27,26,-29.7,18.5C-32.3,11,-31.3,2.9,-30.7,-6.3C-30.2,-15.5,-30.2,-25.7,-25.1,-32.8C-20.1,-40,-10,-44.1,-2.3,-41.4C5.4,-38.7,10.9,-29,18.3,-22.3Z" width="100%" height="100%" transform="translate(50 50)" stroke-width="0" style="transition: all 0.3s ease 0s;" stroke="url(#sw-gradient)"></path>
              </svg>