<svg height="45" width="45" id="Layer_1" data-name="Layer 1" xmlns="http://www.w3.org/2000/svg" viewBox="0 0 492.77 533.62"><defs><style>.cls-1{fill:#ffffff;}</style></defs><title>Untitled-1</title><path class="cls-1" d="M551,297.59C551,444.33,430.9,564.4,284.15,564.4H164.8V120.65h109c96.41,0,175.3,78.9,175.3,175.31,0,84.6-60.74,155.71-140.75,171.87a175,175,0,0,1-34.55,3.45h-18.2v-41h15.07a133.39,133.39,0,0,0,37.68-5.4c55.95-16.39,97.11-68.31,97.11-129.39,0-74.13-60.65-134.8-134.79-134.8H211.79V521h68.3C403,521,503.48,420.45,503.48,297.59S403,74.18,280.09,74.18H105.18V564.4H62.72c-1.51,0-3,0-4.52,0V30.81c1.5,0,3,0,4.52,0H284.15C430.9,30.78,551,150.84,551,297.59Z" transform="translate(-58.2 -30.78)"/></svg>